# xmcd
#
# Track frame offsets:
#	183
#	21288
#	40830
#	56468
#	81650
#	101013
#	120155
#	139953
#	162668
#	184490
#	204550
#	229215
#
# Disc length: 3351 seconds
#
# Revision: 0
# Processed by: cddbd v1.5.2PL0 Copyright (c) Steve Scherf et al.
# Submitted via: EasyCDDAExtractor 16.0.9.1
#
DISCID=ac0d150c
DTITLE=Beth Nielsen Chapman
DYEAR=1990
DGENRE=Country
TTITLE0=Life Holds On
TTITLE1=No System For Love
TTITLE2=I Keep Coming Back To You
TTITLE3=Walk My Way
TTITLE4=All I Have
TTITLE5=Child Again
TTITLE6=Take It As It Comes
TTITLE7=Down On My Knees
TTITLE8=Avalanche
TTITLE9=That's The Easy Part
TTITLE10=Emily
TTITLE11=Years
EXTD=
EXTT0=
EXTT1=
EXTT2=
EXTT3=
EXTT4=
EXTT5=
EXTT6=
EXTT7=
EXTT8=
EXTT9=
EXTT10=
EXTT11=
PLAYORDER=
